<svg xmlns="http://www.w3.org/2000/svg" width="100" height="100"><path transform="matrix(.15268 0 0 .15277 -11.52 -50.3)" d="M404.64 344.28c-81.35.03-161.63 32.4-221.49 94.03-95.77 98.6-116.84 248.99-51.94 370.71 34.65 65.26 34.52 74.18 30.27 118.46 44.2-14.43 30.36-14.37 68.88 33.09 17.67-6.92 17.91-45.35 17.91-45.35s23.06 97.39 47.25 29.8v0c71.02 32.43 182.1 26.27 279.88-28.5l8.16-.82s13.83 30.91 25.85 23.15c17.55-18.97 14.57-30.05 29.56-66.52 2.75 17.4 12.23 47.66 22.11 36.23 66.57-58.2 11.75-260.61 11.75-260.61s0 1.32 37.5 68.29c24.68-136.08-41.14-272.55-162.25-336.4a306.84 306.84 0 00-143.44-35.56z" fill="#4b7b8c" stroke-linecap="round" stroke-linejoin="round" stroke="#4b7b8c" stroke-width="30"/><path d="M28.74 88.06a12.37 12.37 0 01-3.58-6.22c.6-8.63 1.06-15.33 1.63-24.42 7.56-7.25 7.82-7.72 13.65-13.4 1.22 4.7 1.95 7.43 3.46 12.95.36 1.32 2.4 1.85 3.31.95 5.43-5.37 8.64-8.69 13.75-13.85 1.23 4.68 1.52 5.73 3.38 12.75.35 1.35 2.27 2.3 4.13.43 5.22-5.25 6.6-6.66 13-13.18.02.02.85 3.1 1.14 4.2.06 1.48.04 2.22.08 3a53.04 53.04 0 004.52 21.02c.89 2.12 1.2 2.64 1.28 3.53.07.81-.06 1.07-.66 1.96-1.72 2.58-7.42 7.11-13.36 10.34-5.85 3.18-12 5.86-19.06 6.55-10.26 1-18.72.9-26.67-6.6z" fill="#fff"/><path d="M38.27 69.82l-.44-5.04" fill="none" stroke="#4a7b8c" stroke-width="4.58" stroke-linecap="round" stroke-linejoin="round"/><path d="M75 68.4l-.67-5.19" fill="none" stroke="#4b7b8c" stroke-width="4.58" stroke-linecap="round" stroke-linejoin="round"/></svg>