<svg xmlns="http://www.w3.org/2000/svg" viewBox="0 0 1000 1000" style="stroke:#81b;stroke-width:40;stroke-linecap:round;stroke-linejoin:round">
<path fill="#81b" d="M335,942l200-23L774,892c0,0,20,43,36,41c20-2,50-104,50-104s11,75,34,55c102-93,18-398,18-398l57,104c54-259-142-568-467-568C120,22-76,438,85,733c54,99,53,113,46,181c67-22,46-22,105,51c27-11,27-69,27-69S298,1045,335,942L335,942"/>
<path fill="#F08" stroke-width="40" d="M248,565l167-162l43,161l161-161l45,160l161-163l21,83c-4,222,93,255,47,309c-87,102-260,178-413,177c-127,0-217-53-247-144C232,822,248,565,248,565z"/><path stroke-width="90" d="M400,750l-10-90M740,720l-10-90"/></svg>