<svg xmlns="http://www.w3.org/2000/svg" viewbox="0 0 100 100"><path fill= "#81b" stroke="#81b" stroke-linejoin="round" stroke-width="30" d="M404.6 344.3a308.6 308.6 0 00-221.4 94 318.2 318.2 0 00-52 370.7c34.7 65.3 34.5 74.2 30 118.5 44.2-14.4 30.3-14.4 69 33 17.6-6.8 17.9-45.3 17.9-45.3s23 97.4 47.2 29.8v0c71 32.4 182.1 26.3 280-28.5l8.2-.8s13.8 31 25.8 23.2c17.6-19 14.6-30.1 29.6-66.6 2.7 17.4 12.2 47.7 22 36.3 66.7-58.2 11.8-260.7 11.8-260.7s0 1.4 37.5 68.3A316.3 316.3 0 00548 379.8a306.8 306.8 0 00-143.5-35.5z" transform="matrix(.1532 0 0 .15266 -12 -50.2)"/><path fill="#f08" d="M28.7 88a12.4 12.4 0 01-3.5-6.2l1.6-24.4c7.5-7.2 7.8-7.7 13.6-13.4L44 57c.4 1.3 2.4 1.8 3.3 1L61 44l3.3 12.8c.4 1.4 2.3 2.3 4.2.5l13-13.2 1.1 4.2v3a53 53 0 004.6 21c.9 2.1 1.2 2.6 1.3 3.5 0 .8 0 1-.7 2A45.1 45.1 0 0174.5 88a50 50 0 01-19 6.6c-10.4 1-18.8.9-26.8-6.6z"/><path d="M40 75l-1-9m35 6l-1-9" stroke="#81b" stroke-linecap="round" stroke-width="7"/></svg>